<?xml version="1.0" standalone="no"?>
<!DOCTYPE svg PUBLIC "-//W3C//DTD SVG 20010904//EN"
 "http://www.w3.org/TR/2001/REC-SVG-20010904/DTD/svg10.dtd">
<svg version="1.0" xmlns="http://www.w3.org/2000/svg"
 width="500.000000pt" height="500.000000pt" viewBox="0 0 500.000000 500.000000"
 preserveAspectRatio="xMidYMid meet">
<metadata>
Created by potrace 1.16, written by Peter Selinger 2001-2019
</metadata>
<g transform="translate(0.000000,500.000000) scale(0.100000,-0.100000)"
fill="#000000" stroke="none">
<path d="M1304 3699 l-1199 -1199 1195 -1195 c657 -657 1200 -1195 1205 -1195
6 0 548 538 1205 1195 l1195 1195 -1180 1182 c-649 650 -1189 1189 -1201 1199
-20 17 -39 -1 -1220 -1182z m2396 -24 l1175 -1175 -1180 -1180 c-649 -649
-1183 -1179 -1187 -1178 -4 2 -538 533 -1186 1180 l-1177 1178 1175 1175 c646
646 1182 1175 1190 1175 8 0 544 -529 1190 -1175z"/>
<path d="M2373 4213 l-93 -45 0 -48 c0 -44 3 -51 40 -80 l40 -32 0 -440 0
-440 96 7 c84 7 202 28 272 50 17 6 21 4 17 -8 -4 -8 4 -25 18 -39 14 -14 33
-40 42 -59 9 -19 35 -53 57 -75 l40 -41 -35 -22 c-104 -64 -427 -131 -631
-131 -130 0 -176 -9 -176 -33 0 -20 4 -20 138 -14 206 10 441 53 582 106 90
34 185 86 182 100 -1 7 2 9 9 6 16 -11 170 152 199 210 33 66 34 168 3 236
-55 122 -179 208 -428 297 l-50 18 -3 181 -2 180 -55 37 c-30 20 -57 36 -60
36 -3 0 -5 -222 -5 -494 l0 -493 -31 -7 c-17 -3 -38 -6 -45 -6 -12 0 -14 89
-14 545 0 300 -3 545 -7 544 -5 0 -50 -21 -100 -46z m398 -586 c148 -99 180
-226 82 -324 -34 -33 -123 -83 -150 -83 -10 0 -13 52 -13 225 0 124 4 225 8
225 5 0 37 -19 73 -43z"/>
<path d="M2177 4016 c-48 -23 -92 -47 -98 -53 -7 -7 -14 -525 -9 -795 0 -5 45
-8 100 -8 l100 0 -2 450 c-2 247 -3 450 -3 450 0 -1 -39 -20 -88 -44z"/>
<path d="M1015 2437 c-3 -17 -5 -102 -3 -187 l3 -155 65 -3 c111 -6 184 27
221 100 46 89 14 199 -71 247 -32 18 -61 24 -125 27 l-84 4 -6 -33z m199 -81
c30 -28 36 -40 36 -76 0 -34 -6 -48 -34 -76 -29 -29 -41 -34 -80 -34 l-46 0 0
110 0 110 44 0 c37 0 51 -6 80 -34z"/>
<path d="M1376 2463 c-3 -4 -6 -89 -6 -190 l0 -183 131 0 130 0 -3 37 -3 37
-66 -3 c-36 -1 -78 1 -93 5 -24 6 -27 10 -24 43 l3 36 88 3 87 3 0 34 0 35
-90 0 -90 0 0 35 0 35 96 0 95 0 -3 38 -3 37 -121 2 c-67 1 -124 -1 -128 -4z"/>
<path d="M1725 2437 c-68 -68 -37 -161 62 -187 123 -31 136 -43 91 -74 -31
-22 -77 -20 -117 5 -29 17 -38 19 -62 8 -36 -14 -36 -19 -1 -51 41 -39 71 -51
127 -51 61 0 109 23 136 66 41 65 -4 134 -102 157 -57 13 -99 34 -99 50 0 17
32 40 57 40 14 0 40 -7 58 -16 32 -15 36 -15 59 3 33 23 32 27 -6 55 -24 17
-50 24 -100 26 -66 4 -69 3 -103 -31z"/>
<path d="M2037 2463 c-4 -3 -7 -89 -7 -190 l0 -183 35 0 34 0 3 78 3 77 83 3
82 3 0 -81 0 -81 36 3 36 3 -1 180 c-1 99 -6 184 -10 188 -5 5 -19 7 -32 5
-22 -3 -24 -8 -27 -76 l-3 -73 -82 3 -82 3 -3 65 c-2 36 -8 68 -15 72 -15 10
-41 10 -50 1z"/>
<path d="M2422 2462 c-9 -7 -12 -51 -10 -188 l3 -179 35 0 35 0 5 132 5 132
49 -89 49 -90 41 0 41 0 45 85 c24 47 48 85 52 85 5 0 8 -58 8 -130 l0 -130
35 0 35 0 -2 188 -3 187 -37 3 c-52 4 -71 -9 -103 -70 -39 -75 -65 -118 -74
-118 -4 0 -26 36 -50 80 -23 44 -48 86 -56 93 -15 15 -83 21 -103 9z"/>
<path d="M2927 2464 c-4 -4 -7 -64 -7 -133 0 -147 12 -182 76 -218 71 -41 155
-22 200 47 23 35 24 43 22 171 l-3 134 -30 0 -30 0 -5 -127 c-4 -114 -7 -130
-27 -149 -13 -14 -34 -22 -53 -22 -19 0 -40 8 -53 22 -20 19 -23 35 -27 149
l-5 127 -25 3 c-14 2 -29 0 -33 -4z"/>
<path d="M3308 2463 c-16 -4 -18 -22 -18 -189 l0 -184 35 0 c35 0 35 1 35 43
0 36 6 49 35 77 24 23 38 31 43 23 4 -6 27 -41 52 -77 43 -64 46 -66 87 -66
24 0 43 3 43 6 0 3 -32 50 -71 105 -80 113 -80 96 8 191 29 31 53 61 53 67 0
6 -18 11 -40 11 -36 0 -46 -6 -88 -52 -26 -29 -64 -70 -84 -93 l-37 -40 -1 86
c0 70 -3 88 -16 93 -9 3 -16 5 -17 5 -1 -1 -10 -3 -19 -6z"/>
<path d="M3693 2464 c-10 -4 -13 -52 -13 -190 l0 -185 33 3 32 3 3 78 3 78 82
-3 82 -3 3 -77 3 -78 35 0 34 0 -2 188 -3 187 -30 0 -30 0 -3 -72 -3 -73 -84
0 -84 0 -3 73 c-3 64 -5 72 -23 74 -11 1 -26 -1 -32 -3z"/>
<path d="M2106 1919 c-20 -16 -26 -29 -26 -59 0 -47 24 -78 67 -86 27 -5 37
-1 63 24 77 78 -18 189 -104 121z"/>
<path d="M2885 1915 c-41 -40 -33 -105 16 -130 40 -21 57 -19 90 14 54 54 23
141 -51 141 -19 0 -40 -9 -55 -25z"/>
</g>
</svg>
